{"title":"The.Assassination.of.Jesse.James.by.the.Coward.Robert.Ford.2007.","uid":12159650,"size":2100242677,"categoryP":"video","categoryS":"movies","magnet":"?xt=urn:btih:694b7f269c8c553600afab4f68493ed67c38ae64&amp;dn=The.Assassination.of.Jesse.James.by.the.Coward.Robert.Ford.2007.&amp;tr=udp%3A%2F%2Ftracker.openbittorrent.com%3A80&amp;tr=udp%3A%2F%2Fopen.demonii.com%3A1337&amp;tr=udp%3A%2F%2Ftracker.coppersurfer.tk%3A6969&amp;tr=udp%3A%2F%2Fexodus.desync.com%3A6969","seeders":0,"leechers":0,"uploader":null,"files":5,"time":1437856927,"description":"Video\nID                                       : 0\nFormat                                   : MPEG-4 Visual\nFormat profile                           : Simple@L5\nFormat settings, BVOP                    : No\nFormat settings, QPel                    : No\nFormat settings, GMC                     : No warppoints\nFormat settings, Matrix                  : Default (H.263)\nCodec ID                                 : XVID\nCodec ID/Hint                            : XviD\nDuration                                 : 2h 39mn\nBit rate                                 : 1 547 Kbps\nWidth                                    : 720 pixels\nHeight                                   : 300 pixels\nDisplay aspect ratio                     : 2.40:1\nFrame rate                               : 23.976 fps\nColor space                              : YUV\nChroma subsampling                       : 4:2:0\nBit depth                                : 8 bits\nScan type                                : Progressive\nCompression mode                         : Lossy\nBits/(Pixel*Frame)                       : 0.299\nStream size                              : 1.73 GiB (88%)\nTitle                                    : RARBG.COM - The.Assassination.of.Jesse.James.by.the.Coward.Robert.Ford.2007.BRRip.XviD.MP3-RARBG\nWriting library                          : Lavc56.19.100\n\nAudio\nID                                       : 1\nFormat                                   : MPEG Audio\nFormat version                           : Version 1\nFormat profile                           : Layer 3\nMode                                     : Joint stereo\nCodec ID                                 : 55\nCodec ID/Hint                            : MP3\nDuration                                 : 2h 39mn\nBit rate mode                            : Constant\nBit rate                                 : 192 Kbps\nChannel(s)                               : 2 channels\nSampling rate                            : 48.0 KHz\nCompression mode                         : Lossy\nStream size                              : 219 MiB (11%)\nAlignment                                : Aligned on interleaves\nInterleave, duration                     : 24 ms (0.58 video frame)\nInterleave, preload duration             : 24 ms\nTitle                                    : RARBG.COM - The.Assassination.of.Jesse.James.by.the.Coward.Robert.Ford.2007.BRRip.XviD.MP3-RARBG\nWriting library                          : LAME3.99.5","torrent":{"xt":"urn:btih:694b7f269c8c553600afab4f68493ed67c38ae64","amp;dn":"The.Assassination.of.Jesse.James.by.the.Coward.Robert.Ford.2007.","amp;tr":["udp%3A%2F%2Ftracker.openbittorrent.com%3A80","udp%3A%2F%2Fopen.demonii.com%3A1337","udp%3A%2F%2Ftracker.coppersurfer.tk%3A6969","udp%3A%2F%2Fexodus.desync.com%3A6969"],"infoHash":"694b7f269c8c553600afab4f68493ed67c38ae64","infoHashBuffer":{"type":"Buffer","data":[105,75,127,38,156,140,85,54,0,175,171,79,104,73,62,214,124,56,174,100]},"announce":[],"urlList":[]}}